<?xml version="1.0" ?><!DOCTYPE svg  PUBLIC '-//W3C//DTD SVG 1.1//EN'  'http://www.w3.org/Graphics/SVG/1.1/DTD/svg11.dtd'><svg xmlns="http://www.w3.org/2000/svg" xmlns:xlink="http://www.w3.org/1999/xlink" xmlns:serif="http://www.serif.com/" width="100%" height="100%" viewBox="0 0 512 512" version="1.1" xml:space="preserve" style="fill-rule:evenodd;clip-rule:evenodd;stroke-linejoin:round;stroke-miterlimit:2;"><g id="Icons"><path d="M73.21,300.269C79.161,331.794 81.691,364.178 82.014,397.115C82.012,397.209 82.013,397.303 82.016,397.396C82.174,414.203 81.759,431.147 80.932,448.194C80.818,450.545 82.358,452.657 84.631,453.266C200.07,484.216 312.492,480.453 421.834,441.292C423.392,440.734 424.573,439.442 424.988,437.84C430.113,418.082 433.848,398.125 435.938,377.927L435.941,377.905C435.942,377.895 435.943,377.885 435.944,377.874L435.947,377.846C438.967,348.594 438.537,318.855 433.886,288.511C473.993,265.299 501,221.923 501,172.288C501,98.23 440.874,38.103 366.815,38.103C330.754,38.103 297.996,52.358 273.87,75.541C258.664,59.083 236.897,48.77 212.741,48.77C171.968,48.77 138.007,78.155 130.89,116.883C123.328,114.971 115.411,113.955 107.259,113.955C54.132,113.955 11,157.087 11,210.214C11,251.356 36.866,286.504 73.21,300.269ZM426.086,281.423C464.745,260.364 491,219.368 491,172.288C491,103.749 435.354,48.103 366.815,48.103C331.644,48.103 299.869,62.757 277.263,86.288C277.127,86.434 276.981,86.573 276.825,86.704L276.797,86.727L276.771,86.748L276.758,86.759C276.736,86.777 276.715,86.794 276.693,86.811C250.948,107.185 220.097,125.047 179.23,132.177C176.511,132.651 173.919,130.829 173.445,128.111C172.97,125.392 174.793,122.8 177.511,122.326C214.356,115.898 242.643,100.269 266.375,82.166C253.001,67.778 233.915,58.77 212.741,58.77C175.094,58.77 144.043,87.241 139.972,123.809C139.806,125.298 138.981,126.635 137.723,127.451C136.466,128.266 134.909,128.475 133.482,128.019C125.21,125.379 116.4,123.955 107.259,123.955C59.651,123.955 21,162.607 21,210.214C21,257.822 59.651,296.474 107.259,296.474C139.172,296.474 171.811,290.316 197.836,270.254C200.022,268.57 203.164,268.976 204.849,271.162C206.534,273.347 206.127,276.49 203.941,278.174C176.138,299.607 141.353,306.474 107.259,306.474C99.237,306.474 91.443,305.49 83.991,303.637C89.142,332.803 91.497,362.67 91.96,393.012C100.52,394.522 109.104,395.856 117.722,397.019C118.744,382.601 118.542,367.776 116.534,352.349C116.178,349.613 118.11,347.102 120.846,346.745C123.583,346.389 126.094,348.322 126.45,351.058C128.575,367.375 128.77,383.047 127.657,398.283C134.732,399.128 141.822,399.858 148.94,400.477C149.082,389.551 148.833,378.627 148.014,367.703C147.808,364.952 149.874,362.55 152.626,362.343C155.378,362.137 157.78,364.204 157.986,366.955C158.844,378.394 159.094,389.832 158.93,401.27C221.511,405.769 285.313,401.622 350.243,390.096C352.96,389.613 355.557,391.428 356.04,394.145C356.522,396.862 354.708,399.459 351.991,399.942C284.583,411.908 218.375,416.005 153.477,410.887L153.462,410.886C153.451,410.885 153.441,410.884 153.43,410.883L153.32,410.874C148.025,410.454 142.735,409.975 137.451,409.432C132.341,408.907 127.239,408.322 122.143,407.681L121.631,407.616C111.737,406.361 101.876,404.884 92.046,403.179C92.07,416.915 91.73,430.741 91.109,444.636C202.265,473.692 310.57,469.967 415.965,432.765C420.037,416.667 423.157,400.433 425.18,384.041C420.594,385.213 416.014,386.352 411.439,387.458C411.39,387.47 411.341,387.482 411.291,387.493C403.659,389.336 396.04,391.085 388.437,392.738C385.74,393.325 383.075,391.611 382.489,388.915C381.903,386.218 383.616,383.553 386.312,382.967C392.815,381.553 399.328,380.068 405.853,378.514C407.096,370.184 406.795,360.014 406.184,351.352C405.989,348.599 408.067,346.207 410.819,346.012C413.572,345.818 415.965,347.895 416.159,350.648C416.724,358.655 416.984,367.84 416.214,375.99C419.584,375.151 422.957,374.294 426.333,373.418C428.79,347.2 428.38,320.572 424.509,293.453C407.027,301.8 387.462,306.474 366.815,306.474C364.055,306.474 361.815,304.233 361.815,301.474C361.815,298.714 364.055,296.474 366.815,296.474C388.213,296.474 408.354,291.05 425.946,281.499C425.992,281.473 426.039,281.448 426.086,281.423ZM124.21,337.254C123.8,335.149 123.356,333.032 122.878,330.904C122.274,328.212 119.597,326.517 116.904,327.122C114.212,327.726 112.517,330.403 113.122,333.096C113.578,335.13 114.002,337.153 114.394,339.165C114.921,341.874 117.548,343.645 120.257,343.118C122.966,342.59 124.737,339.963 124.21,337.254ZM424.2,94.19C448.172,111.843 463.741,140.262 463.741,172.288C463.741,175.048 465.981,177.288 468.741,177.288C471.5,177.288 473.741,175.048 473.741,172.288C473.741,136.961 456.573,105.611 430.129,86.138C427.907,84.501 424.775,84.977 423.138,87.199C421.502,89.421 421.978,92.554 424.2,94.19ZM386.37,77.339C393.602,78.823 400.541,81.113 407.089,84.112C409.598,85.261 412.568,84.157 413.717,81.648C414.866,79.139 413.762,76.17 411.253,75.02C404.024,71.71 396.364,69.181 388.38,67.543C385.676,66.988 383.031,68.733 382.477,71.436C381.922,74.139 383.667,76.784 386.37,77.339Z"/></g></svg>