<svg data-name="Слой 1" viewBox="0 0 128 128" xmlns="http://www.w3.org/2000/svg"><path d="M7.55 52.45h15.49v8H7.55zM104.96 52.45h15.49v8h-15.49zM20.877 18.977l5.657-5.657L37.813 24.6l-5.657 5.656zM60 0h8v15.49h-8zM90.187 24.606l11.278-11.278 5.657 5.657-11.278 11.278zM20.88 93.908 32.158 82.63l5.657 5.657-11.278 11.278zM90.19 88.294l5.656-5.657 11.279 11.279-5.657 5.656zM47.09 111.09a16.91 16.91 0 1 0 33.82 0V100H47.09Z" fill="#898784" class="fill-000000"></path><path d="M80.91 95.89a19.15 19.15 0 0 1 6.24-14.31 34.76 34.76 0 1 0-46.4-.08 19.34 19.34 0 0 1 6.34 14.39V96h33.82Z" fill="#898784" class="fill-000000"></path></svg>