<svg xmlns="http://www.w3.org/2000/svg" viewBox="0 0 512 512" xml:space="preserve" enable-background="new 0 0 512 512"><path d="M192.617 311.251a4.434 4.434 0 0 0 4.428 4.429H324.38a4.433 4.433 0 0 0 4.428-4.429v-28.124H192.617v28.124zM331.608 87.146c-8.45.078-16.59 2.624-23.54 7.359a10.856 10.856 0 0 1-14.472-2.052c-17.103-20.681-48.697-20.639-65.768 0a10.854 10.854 0 0 1-14.472 2.052c-6.949-4.736-15.09-7.281-23.54-7.359-23.028-.363-42.749 18.393-43.038 42.094-.26 21.346 15.441 39.715 36.521 42.727a10.852 10.852 0 0 1 9.317 10.742v78.717h136.191v-78.717c0-5.4 3.971-9.978 9.317-10.742 21.08-3.012 36.78-21.381 36.521-42.727-.289-23.691-20-42.454-43.037-42.094zM59.968 402.489V1.388C29.492 4.782 5.712 30.688 5.712 62.055V419.12c11.528-10.333 26.742-16.631 43.404-16.631h10.852zM5.712 467.596C5.712 491.528 25.184 511 49.117 511H385.5v-32.553H81.67c-5.993 0-10.851-4.859-10.851-10.851s4.858-10.851 10.851-10.851H385.5v-32.553H49.117c-23.933-.001-43.405 19.471-43.405 43.404zM407.202 511h10.851c11.967 0 21.702-9.735 21.702-21.702v-65.106h-32.553V511zM495.833 81.79l10.455-15.683h-44.831v43.404h44.831l-10.455-15.683a10.85 10.85 0 0 1 0-12.038z" fill="#333329" class="fill-000000"></path><path d="M418.053 1H81.67v401.489h358.085V22.702C439.755 10.735 430.02 1 418.053 1zm-65.107 379.787H168.478c-5.992 0-10.851-4.858-10.851-10.851 0-5.992 4.859-10.851 10.851-10.851h184.468c5.993 0 10.851 4.859 10.851 10.851 0 5.993-4.858 10.851-10.851 10.851zm-2.436-189.385v119.849c0 14.409-11.722 26.131-26.131 26.131H197.045c-14.408 0-26.13-11.722-26.13-26.131V191.402c-27.031-8.104-46.188-33.449-45.835-62.428.42-34.519 28.55-63.719 64.941-63.531 9.62.091 18.979 2.302 27.506 6.454 24.444-22.17 61.882-22.211 86.372 0 8.732-4.252 18.309-6.457 28.118-6.457 35.103 0 63.9 28.373 64.328 63.533.353 28.981-18.803 54.325-45.835 62.429z" fill="#333329" class="fill-000000"></path></svg>