<svg viewBox="0 0 28 30" xmlns="http://www.w3.org/2000/svg"><g data-name="Layer 2"><path d="M14 7a7.008 7.008 0 0 0-7 7 1 1 0 0 0 2 0 5.006 5.006 0 0 1 5-5 1 1 0 0 0 0-2Z" fill="none"></path><path d="M17 25h-6a1 1 0 0 0 0 2h6a1 1 0 0 0 0-2ZM17 28h-6a1 1 0 0 0 0 2h6a1 1 0 0 0 0-2ZM14 4a1 1 0 0 0 1-1V1a1 1 0 0 0-2 0v2a1 1 0 0 0 1 1ZM3 13H1a1 1 0 0 0 0 2h2a1 1 0 0 0 0-2ZM6.707 6.707a1 1 0 0 0 0-1.414l-1.5-1.5a1 1 0 0 0-1.414 1.414l1.5 1.5a1 1 0 0 0 1.414 0ZM27 13h-2a1 1 0 0 0 0 2h2a1 1 0 0 0 0-2ZM23.707 3.793a1 1 0 0 0-1.414 0l-1.5 1.5a1 1 0 1 0 1.414 1.414l1.5-1.5a1 1 0 0 0 0-1.414ZM14 5.333a8.501 8.501 0 0 0-4.333 15.815V23a1 1 0 0 0 1 1h6.666a1 1 0 0 0 1-1v-1.852A8.501 8.501 0 0 0 14 5.334ZM14 9a5.006 5.006 0 0 0-5 5 1 1 0 0 1-2 0 7.008 7.008 0 0 1 7-7 1 1 0 0 1 0 2Z" fill="#333329" class="fill-000000"></path></g></svg>